<?xml version="1.0" encoding="utf-8"?>
<!-- Generator: Adobe Illustrator 16.0.0, SVG Export Plug-In . SVG Version: 6.00 Build 0)  -->
<!DOCTYPE svg PUBLIC "-//W3C//DTD SVG 1.1//EN" "http://www.w3.org/Graphics/SVG/1.1/DTD/svg11.dtd">
<svg version="1.1" id="Layer_1" xmlns="http://www.w3.org/2000/svg" xmlns:xlink="http://www.w3.org/1999/xlink" x="0px" y="0px"
	 width="30px" height="30px" viewBox="0 0 30 30" enable-background="new 0 0 30 30" xml:space="preserve">
<circle fill="#EC4B53" cx="16.219" cy="14.716" r="11.716"/>
<g>
	<path fill="#FEFEFE" d="M10.134,20.393c-0.092,0.006-0.037-0.098-0.025-0.154c0.067-0.354,0.14-0.707,0.212-1.061
		c0.162-0.801,0.326-1.601,0.484-2.402c0.023-0.114,0.071-0.202,0.153-0.283c2.164-2.162,4.329-4.324,6.489-6.49
		c0.1-0.101,0.15-0.108,0.257-0.003c0.922,0.932,1.851,1.859,2.778,2.781c0.104,0.103,0.106,0.156,0.002,0.26
		c-2.17,2.165-4.338,4.334-6.504,6.501c-0.059,0.059-0.118,0.109-0.207,0.127c-1.169,0.232-2.337,0.471-3.505,0.705
		C10.242,20.379,10.214,20.381,10.134,20.393z"/>
	<path fill="#FEFEFE" d="M22.852,10.662c-0.043,0.044-0.074,0.081-0.107,0.115c-0.421,0.422-0.846,0.839-1.262,1.268
		c-0.1,0.099-0.152,0.089-0.246-0.004c-0.926-0.935-1.857-1.867-2.793-2.794c-0.096-0.096-0.096-0.149,0.002-0.243
		c0.428-0.417,0.848-0.838,1.263-1.266c0.099-0.098,0.151-0.092,0.246,0.003c0.928,0.934,1.858,1.864,2.79,2.796
		C22.781,10.572,22.813,10.616,22.852,10.662z"/>
</g>
</svg>
