<?xml version="1.0" encoding="utf-8"?>
<!-- Generator: Adobe Illustrator 16.0.0, SVG Export Plug-In . SVG Version: 6.00 Build 0)  -->
<!DOCTYPE svg PUBLIC "-//W3C//DTD SVG 1.1//EN" "http://www.w3.org/Graphics/SVG/1.1/DTD/svg11.dtd">
<svg version="1.1" id="Layer_1" xmlns="http://www.w3.org/2000/svg" xmlns:xlink="http://www.w3.org/1999/xlink" x="0px" y="0px"
	 width="52px" height="35px" viewBox="0 0 52 35" enable-background="new 0 0 52 35" xml:space="preserve">
<g>
	<polygon fill="#F04E4F" points="45.236,7.095 45.236,0.5 44.516,0.5 44.516,7.095 37.922,7.095 37.922,7.816 44.516,7.816 
		44.516,14.409 45.236,14.409 45.236,7.816 51.83,7.816 51.83,7.095 	"/>
	<path fill="#F04E4F" d="M39.611,10.548c-1.168,0-2.279,1.057-2.279,2.501c0,2.193,2.279,1.887,2.279,3.249
		c0.053,0.466-0.129,2.491-3.826,6.569c-4.605,5.084-4.73,2.398-4.73,1.508c0-2.172,0.816-8.008,0.816-11.801
		c0-1.341-0.357-2.052-1.779-2.052c-1.305,0-8.335,1.687-9.126,3.769c-0.847-2.216-4.16-3.743-7.801-3.743
		c-6.517,0-12.993,4.739-12.993,11.411c0,5.373,4.187,8.334,9.398,8.334c4.898,0,10.585-2.922,10.585-5.568
		c0-0.75-0.632-1.225-1.304-1.225c-1.421,0-3.238,3.082-6.792,3.082c-1.698,0-3.199-1.422-3.199-4.229
		c0-4.619,2.527-8.41,4.581-8.41c2.646,0,0.237,4.107,4.502,4.107c1.975,0,3.239-1.184,3.239-2.645c0-0.012-0.003-0.023-0.003-0.035
		c0.581,0.568,1.846,0.568,1.846,1.785c0,1.422-0.42,5.838-0.42,8.286c0,2.576,1.864,4.264,4.768,4.768
		c2.252,0.395,4.594-0.641,6.877-2.656c1.617-1.432,4.037-3.871,6.287-7.865c0.641-1.141,1.762-3.686,1.797-5.306
		C42.332,11.771,41.109,10.548,39.611,10.548z"/>
</g>
</svg>
