<?xml version="1.0" encoding="utf-8"?>
<!-- Generator: Adobe Illustrator 16.0.0, SVG Export Plug-In . SVG Version: 6.00 Build 0)  -->
<!DOCTYPE svg PUBLIC "-//W3C//DTD SVG 1.1//EN" "http://www.w3.org/Graphics/SVG/1.1/DTD/svg11.dtd">
<svg version="1.1" id="Layer_1" xmlns="http://www.w3.org/2000/svg" xmlns:xlink="http://www.w3.org/1999/xlink" x="0px" y="0px"
	 width="76px" height="76px" viewBox="0 0 76 76" enable-background="new 0 0 76 76" xml:space="preserve">
<circle fill="#21D8A2" cx="38" cy="37.999" r="34.57"/>
<g display="none">
	<path display="inline" fill-rule="evenodd" clip-rule="evenodd" fill="#FFFFFF" d="M53.817,23.936
		c0,12.031-0.002,24.062,0.015,36.091c0,0.453-0.088,0.543-0.541,0.543c-9.923-0.017-19.847-0.017-29.77,0
		c-0.452,0-0.541-0.09-0.54-0.543c0.015-13.786,0.015-27.572,0-41.36c0-0.452,0.088-0.541,0.54-0.54
		c8.254,0.016,16.51,0.013,24.766,0.013c0,1.643,0.021,3.284-0.014,4.924c-0.017,0.635,0.191,0.853,0.821,0.845
		C50.668,23.889,52.243,23.924,53.817,23.936z M35.77,34.769c-0.128-0.738-0.237-1.496-0.397-2.246
		c-0.091-0.431-0.002-0.738,0.337-1.034c0.51-0.447,0.978-0.942,1.462-1.42c0.168-0.167,0.388-0.323,0.287-0.61
		c-0.091-0.251-0.327-0.253-0.546-0.286c-0.714-0.105-1.425-0.255-2.143-0.319c-0.417-0.037-0.601-0.23-0.756-0.584
		c-0.291-0.661-0.633-1.297-0.949-1.947c-0.089-0.183-0.186-0.369-0.408-0.385c-0.26-0.018-0.37,0.179-0.47,0.388
		c-0.333,0.688-0.694,1.365-1.008,2.063c-0.134,0.297-0.309,0.416-0.632,0.452c-0.738,0.083-1.471,0.222-2.207,0.331
		c-0.22,0.034-0.452,0.04-0.547,0.288c-0.114,0.295,0.121,0.439,0.285,0.604c0.512,0.511,1.022,1.025,1.552,1.519
		c0.246,0.228,0.347,0.436,0.266,0.797c-0.166,0.723-0.25,1.465-0.382,2.198c-0.04,0.223-0.095,0.439,0.105,0.607
		c0.238,0.198,0.454,0.04,0.664-0.07c0.621-0.325,1.247-0.639,1.851-0.992c0.34-0.198,0.62-0.213,0.966-0.01
		c0.642,0.374,1.304,0.716,1.97,1.046C35.535,35.39,35.767,35.251,35.77,34.769z M38.404,38.805c-3.159,0-6.321,0-9.482,0
		c-0.175,0-0.351-0.003-0.526,0.008c-0.228,0.012-0.375,0.135-0.387,0.363c-0.011,0.235,0.145,0.366,0.356,0.403
		c0.172,0.029,0.35,0.019,0.526,0.019c6.344,0.002,12.688,0.002,19.031,0c0.197,0,0.4,0.012,0.587-0.035
		c0.175-0.042,0.312-0.18,0.296-0.387c-0.017-0.195-0.127-0.331-0.323-0.353c-0.198-0.021-0.396-0.019-0.593-0.019
		C44.726,38.804,41.565,38.805,38.404,38.805z M38.41,42.892c3.161,0,6.321,0,9.481,0c0.197,0,0.4,0.014,0.59-0.024
		c0.21-0.044,0.353-0.197,0.318-0.428c-0.028-0.191-0.152-0.316-0.355-0.326c-0.152-0.009-0.306-0.011-0.46-0.011
		c-6.39,0-12.775,0-19.164,0c-0.153,0.002-0.308,0-0.46,0.011c-0.204,0.014-0.327,0.142-0.35,0.331
		c-0.029,0.23,0.113,0.384,0.325,0.425c0.192,0.036,0.394,0.022,0.591,0.022C32.087,42.892,35.248,42.892,38.41,42.892z
		 M38.406,46.189c3.161,0,6.319,0,9.485,0c0.194,0,0.397,0.017,0.59-0.025c0.208-0.041,0.351-0.194,0.318-0.425
		c-0.028-0.189-0.149-0.318-0.355-0.329c-0.152-0.008-0.306-0.008-0.46-0.008c-6.386,0-12.774,0-19.161,0
		c-0.154,0-0.308,0-0.46,0.008c-0.205,0.014-0.328,0.143-0.352,0.329c-0.03,0.233,0.111,0.384,0.323,0.428
		c0.191,0.035,0.393,0.022,0.59,0.022C32.086,46.189,35.246,46.189,38.406,46.189z M38.34,49.483c3.271,0,6.539,0,9.812,0.002
		c0.297,0,0.625,0,0.642-0.386c0.019-0.397-0.31-0.411-0.607-0.406c-0.088,0.004-0.176,0-0.264,0c-6.343,0-12.688,0-19.031,0.004
		c-0.197,0-0.397-0.009-0.592,0.021c-0.163,0.025-0.267,0.156-0.29,0.318c-0.027,0.199,0.083,0.358,0.263,0.402
		c0.186,0.05,0.389,0.044,0.585,0.044C32.02,49.485,35.18,49.483,38.34,49.483z M33.863,51.993c-1.731,0-3.462,0-5.194-0.002
		c-0.29,0-0.634-0.023-0.65,0.367c-0.017,0.437,0.347,0.422,0.662,0.422c3.419,0,6.838,0,10.258,0c0.288,0,0.628,0.028,0.644-0.372
		c0.023-0.452-0.348-0.415-0.656-0.415C37.239,51.993,35.551,51.993,33.863,51.993z M44.515,30.212c-1.204,0-2.407-0.002-3.61,0.002
		c-0.298,0.002-0.695-0.07-0.701,0.374c-0.006,0.48,0.414,0.417,0.731,0.417c2.366,0.003,4.729,0.004,7.089-0.001
		c0.321,0,0.751,0.079,0.77-0.385c0.019-0.493-0.425-0.402-0.734-0.403C46.881,30.208,45.696,30.212,44.515,30.212z M43.493,33.525
		c-0.903,0-1.799,0.003-2.697,0c-0.275,0-0.573-0.005-0.593,0.354c-0.021,0.389,0.279,0.438,0.586,0.438c1.799,0,3.594,0,5.39,0
		c0.284,0,0.557-0.05,0.559-0.402c0.005-0.362-0.266-0.391-0.551-0.39C45.285,33.53,44.389,33.525,43.493,33.525z M43.281,27.264
		c0.831,0,1.664,0,2.491,0.001c0.279,0.001,0.559-0.019,0.557-0.387c-0.005-0.355-0.279-0.403-0.557-0.404
		c-1.66-0.002-3.321-0.001-4.983-0.001c-0.303,0-0.607,0.048-0.589,0.437c0.02,0.359,0.318,0.358,0.589,0.355
		C41.62,27.263,42.451,27.264,43.281,27.264z"/>
	<path display="inline" fill-rule="evenodd" clip-rule="evenodd" fill="#FFFFFF" d="M53.452,22.983
		c-1.432,0-2.653-0.002-3.878,0.004c-0.236,0.001-0.362-0.057-0.36-0.327c0.008-1.306,0.003-2.612,0.003-4.079
		C49.964,19.358,50.911,20.343,53.452,22.983z"/>
</g>
<g>
	<path fill-rule="evenodd" clip-rule="evenodd" fill="#FFFFFF" d="M55.329,24.325c0,12.177-0.002,24.355,0.008,36.535
		c0,0.303-0.068,0.372-0.371,0.372c-10.494-0.011-20.985-0.011-31.478,0c-0.302,0-0.372-0.069-0.372-0.372
		c0.009-14.134,0.009-28.267,0-42.401c0-0.302,0.069-0.374,0.372-0.372c8.563,0.009,17.128,0.008,25.691,0.008
		c0.005,1.937,0.019,3.875,0.005,5.812c-0.001,0.329,0.071,0.428,0.413,0.425C51.509,24.314,53.419,24.325,55.329,24.325z
		 M31.131,31.135c0.755,0,1.508-0.007,2.262,0.004c0.213,0.003,0.274-0.06,0.273-0.271c-0.01-1.494-0.01-2.988,0-4.484
		c0.001-0.221-0.052-0.298-0.288-0.297c-1.521,0.009-3.042,0.008-4.563,0c-0.211-0.001-0.272,0.06-0.271,0.272
		c0.009,1.494,0.013,2.988-0.003,4.483c-0.002,0.273,0.105,0.3,0.33,0.296C29.624,31.128,30.378,31.135,31.131,31.135z
		 M39.216,39.019c-3.277,0-6.553,0-9.829,0c-0.149,0-0.298-0.004-0.443,0.017c-0.243,0.033-0.388,0.182-0.405,0.43
		c-0.02,0.267,0.111,0.444,0.369,0.502c0.156,0.033,0.32,0.031,0.481,0.031C35.94,40,42.493,40,49.046,40
		c0.108,0,0.217,0.005,0.324-0.003c0.318-0.024,0.558-0.153,0.544-0.515c-0.013-0.334-0.238-0.456-0.546-0.463
		c-0.107-0.002-0.216-0.001-0.322-0.001C45.769,39.019,42.492,39.019,39.216,39.019z M39.186,49.871
		c3.357,0,6.715,0.003,10.071-0.001c0.443,0,0.654-0.162,0.661-0.481c0.008-0.323-0.2-0.486-0.639-0.498
		c-0.054-0.003-0.108,0-0.162,0c-6.594,0-13.188,0-19.78,0c-0.122,0-0.243-0.003-0.363,0.012c-0.262,0.032-0.42,0.179-0.437,0.446
		c-0.018,0.289,0.145,0.454,0.417,0.506c0.129,0.026,0.268,0.017,0.402,0.017C32.633,49.871,35.909,49.871,39.186,49.871z
		 M39.228,43.273c3.303,0,6.605,0,9.909,0c0.121,0,0.244,0.009,0.363-0.008c0.242-0.034,0.391-0.176,0.414-0.424
		c0.024-0.244-0.084-0.426-0.32-0.494c-0.139-0.042-0.291-0.045-0.438-0.045c-6.62-0.001-13.24-0.001-19.86,0
		c-0.146,0-0.299,0.003-0.437,0.045c-0.237,0.069-0.345,0.253-0.32,0.498c0.026,0.246,0.174,0.388,0.416,0.42
		c0.119,0.017,0.242,0.008,0.364,0.008C32.623,43.273,35.924,43.273,39.228,43.273z M39.24,35.729c-3.29,0-6.577,0-9.868,0
		c-0.122,0-0.243-0.004-0.364,0.004c-0.282,0.019-0.455,0.169-0.469,0.455c-0.016,0.309,0.169,0.468,0.46,0.509
		c0.105,0.015,0.214,0.006,0.322,0.006c6.606,0,13.213,0,19.818,0c0.122,0,0.246,0.012,0.364-0.013
		c0.267-0.06,0.432-0.225,0.409-0.515c-0.02-0.265-0.181-0.412-0.439-0.44c-0.121-0.015-0.243-0.006-0.363-0.006
		C45.82,35.729,42.531,35.729,39.24,35.729z M39.228,46.574c3.304,0,6.606,0,9.909-0.001c0.121,0,0.247,0.015,0.363-0.01
		c0.269-0.056,0.434-0.219,0.414-0.508c-0.018-0.266-0.178-0.414-0.437-0.446c-0.106-0.016-0.215-0.006-0.323-0.006
		c-6.62,0-13.239,0-19.859,0c-0.107,0-0.217-0.01-0.323,0.006c-0.257,0.035-0.418,0.182-0.434,0.449
		c-0.017,0.29,0.149,0.452,0.417,0.508c0.118,0.021,0.244,0.007,0.364,0.007C32.623,46.574,35.926,46.574,39.228,46.574z
		 M34.536,53.151c1.577,0,3.153,0,4.73,0c0.269,0,0.537,0.004,0.806-0.007c0.284-0.012,0.454-0.17,0.468-0.455
		c0.017-0.289-0.153-0.448-0.422-0.502c-0.119-0.023-0.242-0.014-0.363-0.014c-3.475,0-6.95-0.002-10.426,0.001
		c-0.146,0-0.299-0.004-0.439,0.035c-0.254,0.068-0.379,0.252-0.349,0.516c0.027,0.245,0.177,0.387,0.421,0.416
		c0.119,0.014,0.242,0.01,0.364,0.01C31.061,53.151,32.799,53.151,34.536,53.151z M38.907,29.306c0.756,0,1.508,0.002,2.264-0.001
		c0.462-0.002,0.687-0.174,0.681-0.502c-0.007-0.313-0.229-0.484-0.661-0.484c-1.523-0.004-3.045-0.004-4.567,0
		c-0.437,0-0.651,0.169-0.658,0.484c-0.007,0.333,0.211,0.5,0.678,0.503C37.398,29.308,38.152,29.306,38.907,29.306z M38.233,31.33
		c0.566,0,1.131,0.004,1.696-0.003c0.416-0.002,0.671-0.193,0.646-0.497c-0.034-0.367-0.283-0.485-0.624-0.484
		c-1.129,0.002-2.259-0.002-3.389,0.004c-0.398,0.002-0.613,0.185-0.596,0.497c0.021,0.383,0.281,0.482,0.613,0.482
		C37.131,31.329,37.684,31.33,38.233,31.33z M38.135,27.015c0.537,0,1.077-0.003,1.613,0c0.311,0.001,0.537-0.118,0.555-0.45
		c0.021-0.351-0.205-0.519-0.527-0.523c-1.09-0.01-2.18-0.01-3.268,0c-0.322,0.002-0.552,0.162-0.535,0.518
		c0.016,0.333,0.237,0.457,0.549,0.456C37.06,27.012,37.597,27.015,38.135,27.015z"/>
	<path fill-rule="evenodd" clip-rule="evenodd" fill="#FFFFFF" d="M50.055,19.023c1.294,1.223,2.619,2.475,3.943,3.728
		c-0.018,0.033-0.034,0.064-0.052,0.095c-1.231,0-2.463,0-3.693,0.001c-0.17,0.002-0.199-0.085-0.199-0.225
		C50.055,21.387,50.055,20.152,50.055,19.023z"/>
</g>
</svg>
