<?xml version="1.0" encoding="utf-8"?>
<!-- Generator: Adobe Illustrator 16.0.0, SVG Export Plug-In . SVG Version: 6.00 Build 0)  -->
<!DOCTYPE svg PUBLIC "-//W3C//DTD SVG 1.1//EN" "http://www.w3.org/Graphics/SVG/1.1/DTD/svg11.dtd">
<svg version="1.1" id="Layer_1" xmlns="http://www.w3.org/2000/svg" xmlns:xlink="http://www.w3.org/1999/xlink" x="0px" y="0px"
	 width="76px" height="76px" viewBox="0 0 76 76" enable-background="new 0 0 76 76" xml:space="preserve">
<circle fill="#67D5DC" cx="38" cy="37.999" r="34.57"/>
<g>
	<path fill-rule="evenodd" clip-rule="evenodd" fill="#FFFFFF" d="M53.817,23.936c0,12.031-0.002,24.062,0.015,36.091
		c0,0.453-0.088,0.543-0.541,0.543c-9.923-0.017-19.847-0.017-29.77,0c-0.452,0-0.541-0.09-0.54-0.543
		c0.015-13.786,0.015-27.572,0-41.36c0-0.452,0.088-0.541,0.54-0.54c8.254,0.016,16.51,0.013,24.766,0.013
		c0,1.643,0.021,3.284-0.014,4.924c-0.017,0.635,0.191,0.853,0.821,0.845C50.668,23.889,52.243,23.924,53.817,23.936z M35.77,34.769
		c-0.128-0.738-0.237-1.496-0.397-2.246c-0.091-0.431-0.002-0.738,0.337-1.034c0.51-0.447,0.978-0.942,1.462-1.42
		c0.168-0.167,0.388-0.323,0.287-0.61c-0.091-0.251-0.327-0.253-0.546-0.286c-0.714-0.105-1.425-0.255-2.143-0.319
		c-0.417-0.037-0.601-0.23-0.756-0.584c-0.291-0.661-0.633-1.297-0.949-1.947c-0.089-0.183-0.186-0.369-0.408-0.385
		c-0.26-0.018-0.37,0.179-0.47,0.388c-0.333,0.688-0.694,1.365-1.008,2.063c-0.134,0.297-0.309,0.416-0.632,0.452
		c-0.738,0.083-1.471,0.222-2.207,0.331c-0.22,0.034-0.452,0.04-0.547,0.288c-0.114,0.295,0.121,0.439,0.285,0.604
		c0.512,0.511,1.022,1.025,1.552,1.519c0.246,0.228,0.347,0.436,0.266,0.797c-0.166,0.723-0.25,1.465-0.382,2.198
		c-0.04,0.223-0.095,0.439,0.105,0.607c0.238,0.198,0.454,0.04,0.664-0.07c0.621-0.325,1.247-0.639,1.851-0.992
		c0.34-0.198,0.62-0.213,0.966-0.01c0.642,0.374,1.304,0.716,1.97,1.046C35.535,35.39,35.767,35.251,35.77,34.769z M38.404,38.805
		c-3.159,0-6.321,0-9.482,0c-0.175,0-0.351-0.003-0.526,0.008c-0.228,0.012-0.375,0.135-0.387,0.363
		c-0.011,0.235,0.145,0.366,0.356,0.403c0.172,0.029,0.35,0.019,0.526,0.019c6.344,0.002,12.688,0.002,19.031,0
		c0.197,0,0.4,0.012,0.587-0.035c0.175-0.042,0.312-0.18,0.296-0.387c-0.017-0.195-0.127-0.331-0.323-0.353
		c-0.198-0.021-0.396-0.019-0.593-0.019C44.726,38.804,41.565,38.805,38.404,38.805z M38.41,42.892c3.161,0,6.321,0,9.481,0
		c0.197,0,0.4,0.014,0.59-0.024c0.21-0.044,0.353-0.197,0.318-0.428c-0.028-0.191-0.152-0.316-0.355-0.326
		c-0.152-0.009-0.306-0.011-0.46-0.011c-6.39,0-12.775,0-19.164,0c-0.153,0.002-0.308,0-0.46,0.011
		c-0.204,0.014-0.327,0.142-0.35,0.331c-0.029,0.23,0.113,0.384,0.325,0.425c0.192,0.036,0.394,0.022,0.591,0.022
		C32.087,42.892,35.248,42.892,38.41,42.892z M38.406,46.189c3.161,0,6.319,0,9.485,0c0.194,0,0.397,0.017,0.59-0.025
		c0.208-0.041,0.351-0.194,0.318-0.425c-0.028-0.189-0.149-0.318-0.355-0.329c-0.152-0.008-0.306-0.008-0.46-0.008
		c-6.386,0-12.774,0-19.161,0c-0.154,0-0.308,0-0.46,0.008c-0.205,0.014-0.328,0.143-0.352,0.329
		c-0.03,0.233,0.111,0.384,0.323,0.428c0.191,0.035,0.393,0.022,0.59,0.022C32.086,46.189,35.246,46.189,38.406,46.189z
		 M38.34,49.483c3.271,0,6.539,0,9.812,0.002c0.297,0,0.625,0,0.642-0.386c0.019-0.397-0.31-0.411-0.607-0.406
		c-0.088,0.004-0.176,0-0.264,0c-6.343,0-12.688,0-19.031,0.004c-0.197,0-0.397-0.009-0.592,0.021
		c-0.163,0.025-0.267,0.156-0.29,0.318c-0.027,0.199,0.083,0.358,0.263,0.402c0.186,0.05,0.389,0.044,0.585,0.044
		C32.02,49.485,35.18,49.483,38.34,49.483z M33.863,51.993c-1.731,0-3.462,0-5.194-0.002c-0.29,0-0.634-0.023-0.65,0.367
		c-0.017,0.437,0.347,0.422,0.662,0.422c3.419,0,6.838,0,10.258,0c0.288,0,0.628,0.028,0.644-0.372
		c0.023-0.452-0.348-0.415-0.656-0.415C37.239,51.993,35.551,51.993,33.863,51.993z M44.515,30.212c-1.204,0-2.407-0.002-3.61,0.002
		c-0.298,0.002-0.695-0.07-0.701,0.374c-0.006,0.48,0.414,0.417,0.731,0.417c2.366,0.003,4.729,0.004,7.089-0.001
		c0.321,0,0.751,0.079,0.77-0.385c0.019-0.493-0.425-0.402-0.734-0.403C46.881,30.208,45.696,30.212,44.515,30.212z M43.493,33.525
		c-0.903,0-1.799,0.003-2.697,0c-0.275,0-0.573-0.005-0.593,0.354c-0.021,0.389,0.279,0.438,0.586,0.438c1.799,0,3.594,0,5.39,0
		c0.284,0,0.557-0.05,0.559-0.402c0.005-0.362-0.266-0.391-0.551-0.39C45.285,33.53,44.389,33.525,43.493,33.525z M43.281,27.264
		c0.831,0,1.664,0,2.491,0.001c0.279,0.001,0.559-0.019,0.557-0.387c-0.005-0.355-0.279-0.403-0.557-0.404
		c-1.66-0.002-3.321-0.001-4.983-0.001c-0.303,0-0.607,0.048-0.589,0.437c0.02,0.359,0.318,0.358,0.589,0.355
		C41.62,27.263,42.451,27.264,43.281,27.264z"/>
	<path fill-rule="evenodd" clip-rule="evenodd" fill="#FFFFFF" d="M53.452,22.983c-1.432,0-2.653-0.002-3.878,0.004
		c-0.236,0.001-0.362-0.057-0.36-0.327c0.008-1.306,0.003-2.612,0.003-4.079C49.964,19.358,50.911,20.343,53.452,22.983z"/>
</g>
</svg>
