<?xml version="1.0" encoding="utf-8"?>
<!-- Generator: Adobe Illustrator 16.0.0, SVG Export Plug-In . SVG Version: 6.00 Build 0)  -->
<!DOCTYPE svg PUBLIC "-//W3C//DTD SVG 1.1//EN" "http://www.w3.org/Graphics/SVG/1.1/DTD/svg11.dtd">
<svg version="1.1" id="Layer_1" xmlns="http://www.w3.org/2000/svg" xmlns:xlink="http://www.w3.org/1999/xlink" x="0px" y="0px"
	 width="76px" height="76px" viewBox="0 0 76 76" enable-background="new 0 0 76 76" xml:space="preserve">
<circle fill="#F1B928" cx="38.496" cy="38.208" r="34.57"/>
<g>
	<path fill-rule="evenodd" clip-rule="evenodd" fill="#FFFFFF" d="M38.279,43.82c0-3.396,0-6.792,0-10.188
		c0.037-0.155-0.026-0.212-0.178-0.184c-1.8-0.021-3.6-0.025-5.4-0.072c-0.52-0.013-0.597,0.214-0.594,0.656
		c0.014,3.125,0.021,6.251-0.005,9.376c-0.005,0.564,0.208,0.666,0.707,0.656c1.763-0.036,3.527-0.036,5.292-0.051
		C38.263,44.046,38.313,43.973,38.279,43.82z"/>
	<path fill-rule="evenodd" clip-rule="evenodd" fill="#FFFFFF" d="M24.377,46.309c5.152-0.011,10.306-0.017,15.457-0.035
		c0.559-0.003,0.908,0.094,0.906,0.774c-0.018,4.342-0.008,8.686-0.018,13.03c-0.001,0.121-0.112,0.243-0.172,0.366
		c-5.467-0.007-10.934-0.013-16.401-0.019c0-4.649,0-9.3,0-13.95C24.226,46.418,24.301,46.364,24.377,46.309z"/>
	<path fill-rule="evenodd" clip-rule="evenodd" fill="#FFFFFF" d="M38.101,30.938c-4.65,0.146-9.301,0.074-13.952,0.037
		c0-3.322,0.016-6.643-0.015-9.964c-0.005-0.555,0.125-0.683,0.679-0.68c4.428,0.026,8.857,0.015,13.286,0.015
		c0.06,0.074,0.12,0.147,0.179,0.22c0,3.396,0,6.792,0,10.189C38.22,30.817,38.16,30.877,38.101,30.938z"/>
	<path fill-rule="evenodd" clip-rule="evenodd" fill="#FFFFFF" d="M54.262,44.087c-4.158-0.01-8.315-0.049-12.473-0.008
		c-0.854,0.007-1.029-0.248-1.016-1.05c0.051-2.833,0.058-5.668-0.003-8.5c-0.019-0.892,0.175-1.179,1.125-1.168
		c4.121,0.048,8.241,0.006,12.362-0.003c0.077,0.018,0.152,0.036,0.228,0.054c0,3.543,0,7.086,0,10.629
		C54.411,44.055,54.337,44.072,54.262,44.087z"/>
	<path fill-rule="evenodd" clip-rule="evenodd" fill="#FFFFFF" d="M54.265,54.046C50.919,54.033,47.574,54,44.23,54.03
		c-0.811,0.006-1.152-0.127-1.113-1.052c0.082-1.945,0.038-3.897,0.018-5.846c-0.005-0.488,0.088-0.724,0.656-0.718
		c3.564,0.038,7.129,0.044,10.694,0.061c0,2.51,0,5.02,0,7.528C54.412,54.019,54.338,54.031,54.265,54.046z"/>
	<path fill-rule="evenodd" clip-rule="evenodd" fill="#FFFFFF" d="M29.681,44.009c-1.77,0.026-3.539,0.053-5.307,0.078
		c-0.075-0.015-0.149-0.032-0.224-0.047c0-3.543,0-7.086,0-10.629c0.076-0.018,0.151-0.036,0.228-0.054
		c1.545,0.009,3.09,0.046,4.634,0.015c0.642-0.013,0.899,0.122,0.889,0.841c-0.049,3.199-0.037,6.4-0.046,9.599
		C29.795,43.877,29.738,43.943,29.681,44.009z"/>
	<path fill-rule="evenodd" clip-rule="evenodd" fill="#FFFFFF" d="M54.258,24.5c-4.197,0.01-8.395,0.008-12.591,0.041
		c-0.607,0.005-0.752-0.225-0.733-0.772c0.039-1.14,0.032-2.281,0.045-3.422c4.28,0,8.562,0.012,12.843-0.015
		c0.554-0.003,0.704,0.123,0.679,0.68c-0.051,1.105-0.015,2.214-0.015,3.321C54.41,24.388,54.335,24.444,54.258,24.5z"/>
	<path fill-rule="evenodd" clip-rule="evenodd" fill="#FFFFFF" d="M54.485,30.976c-4.169,0-8.339-0.019-12.508,0.017
		c-0.77,0.007-1.147-0.099-1.055-0.994c0.105-1.019-0.315-2.367,0.198-2.994c0.543-0.661,1.938-0.196,2.957-0.201
		c3.394-0.018,6.787,0.009,10.182,0.018c0.075,0.056,0.15,0.112,0.226,0.168C54.485,28.318,54.485,29.647,54.485,30.976z"/>
	<path fill-rule="evenodd" clip-rule="evenodd" fill="#FFFFFF" d="M43.192,60.647c-0.017-1.252-0.011-2.507-0.06-3.758
		c-0.022-0.571,0.24-0.657,0.727-0.654c3.467,0.025,6.934,0.027,10.4,0.037c0.075,0.056,0.15,0.111,0.226,0.167
		c0,1.182-0.034,2.363,0.015,3.542c0.024,0.558-0.124,0.685-0.679,0.682C50.279,60.633,46.736,60.647,43.192,60.647z"/>
	<path fill-rule="evenodd" clip-rule="evenodd" fill="#FFFFFF" d="M24.149,60.426c5.467,0.006,10.934,0.012,16.401,0.019
		c-0.01,0.065-0.016,0.135-0.016,0.203c-5.169,0-10.338,0.004-15.507-0.014C24.743,60.633,24.347,60.88,24.149,60.426z"/>
	<path fill-rule="evenodd" clip-rule="evenodd" fill="#FFFFFF" d="M38.279,20.567c-0.06-0.073-0.12-0.146-0.179-0.22
		c0.073,0,0.147,0,0.221,0C38.308,20.42,38.293,20.494,38.279,20.567z"/>
	<path fill-rule="evenodd" clip-rule="evenodd" fill="#FFFFFF" d="M54.258,24.5c0.077-0.056,0.152-0.112,0.228-0.167
		c0,0.074,0,0.148,0,0.221C54.41,24.536,54.335,24.519,54.258,24.5z"/>
	<path fill-rule="evenodd" clip-rule="evenodd" fill="#FFFFFF" d="M54.485,26.99c-0.075-0.056-0.15-0.112-0.226-0.168
		c0.075-0.018,0.15-0.036,0.226-0.054C54.485,26.842,54.485,26.916,54.485,26.99z"/>
	<path fill-rule="evenodd" clip-rule="evenodd" fill="#FFFFFF" d="M24.377,33.357c-0.076,0.018-0.151,0.036-0.228,0.054
		c0-0.074,0-0.147,0-0.222C24.226,33.246,24.301,33.302,24.377,33.357z"/>
	<path fill-rule="evenodd" clip-rule="evenodd" fill="#FFFFFF" d="M54.485,33.411c-0.075-0.018-0.15-0.036-0.228-0.054
		c0.077-0.056,0.152-0.112,0.228-0.168C54.485,33.264,54.485,33.337,54.485,33.411z"/>
	<path fill-rule="evenodd" clip-rule="evenodd" fill="#FFFFFF" d="M24.149,44.04c0.075,0.015,0.149,0.032,0.224,0.047
		c-0.075,0.06-0.149,0.117-0.224,0.175C24.149,44.188,24.149,44.113,24.149,44.04z"/>
	<path fill-rule="evenodd" clip-rule="evenodd" fill="#FFFFFF" d="M54.262,44.087c0.075-0.015,0.149-0.032,0.224-0.047
		c0,0.073,0,0.147,0,0.222C54.411,44.204,54.337,44.146,54.262,44.087z"/>
	<path fill-rule="evenodd" clip-rule="evenodd" fill="#FFFFFF" d="M24.377,46.309c-0.076,0.056-0.151,0.109-0.228,0.167
		c0-0.074,0-0.147,0-0.222C24.226,46.271,24.301,46.29,24.377,46.309z"/>
	<path fill-rule="evenodd" clip-rule="evenodd" fill="#FFFFFF" d="M54.265,54.046c0.073-0.015,0.147-0.027,0.221-0.042
		c0,0.074,0,0.148,0,0.222C54.412,54.165,54.338,54.105,54.265,54.046z"/>
	<path fill-rule="evenodd" clip-rule="evenodd" fill="#FFFFFF" d="M54.485,56.439c-0.075-0.056-0.15-0.111-0.226-0.167
		c0.075-0.019,0.15-0.037,0.226-0.054C54.485,56.293,54.485,56.366,54.485,56.439z"/>
	<path fill-rule="evenodd" clip-rule="evenodd" fill="#FFFFFF" d="M38.101,44.014c-1.766,0.015-3.529,0.015-5.292,0.051
		c-0.498,0.01-0.711-0.092-0.707-0.656c0.025-3.125,0.019-6.251,0.005-9.376c-0.002-0.442,0.074-0.669,0.594-0.656
		c1.8,0.046,3.6,0.051,5.4,0.072c0.06,0.062,0.119,0.123,0.178,0.184c0,3.396,0,6.792,0,10.188
		C38.22,43.885,38.16,43.949,38.101,44.014z"/>
	<path fill-rule="evenodd" clip-rule="evenodd" fill="#FFFFFF" d="M38.101,30.938c0.059-0.061,0.119-0.122,0.178-0.183
		C38.315,30.91,38.251,30.968,38.101,30.938z"/>
	<path fill-rule="evenodd" clip-rule="evenodd" fill="#FFFFFF" d="M38.279,33.632c-0.06-0.062-0.118-0.123-0.178-0.184
		C38.253,33.419,38.316,33.477,38.279,33.632z"/>
	<path fill-rule="evenodd" clip-rule="evenodd" fill="#FFFFFF" d="M29.681,44.009c0.058-0.065,0.115-0.132,0.173-0.196
		C29.904,43.974,29.83,44.024,29.681,44.009z"/>
	<path fill-rule="evenodd" clip-rule="evenodd" fill="#FFFFFF" d="M38.101,44.014c0.059-0.064,0.119-0.129,0.178-0.193
		C38.313,43.973,38.263,44.046,38.101,44.014z"/>
</g>
</svg>
